mastitorrents.com
  
http://mastitorrents.com/forums/index.php
  
http://thepiratebay.se/user/HDvideos/0/7

Race 2 (2013) - Hindi - Xvid - DvdScr Rip - AC3 - E-subs -[TDT]

General
Complete name : Race 2 (2013) - Xvid - DvdScr Rip - AC3 - E-subs -[TDT].avi
IMDB : Race 2 (2013) - IMDb
Format : AVI
File size : 896 MiB
Duration : 2h 22mn
Overall bit rate : 881 Kbps
Source : DvdSCR @ obaid2k13
Ripper : KingFisheR [~TDT~].

Video

Codec ID : XVID
Duration : 2h 22mn
Bit rate : 744 Kbps
Width : 688 pixels
Height : 288 pixels
Display aspect ratio : 2.40:1
Frame rate : 23.976 fps
Scan type : Progressive
Bits/(Pixel*Frame) : 0.157
Stream size : 756 MiB (84%)

Audio

Format : AC-3
Duration : 2h 22mn
Bit rate mode : Constant
Bit rate : 128 Kbps
Channel(s) : 2 channels
Channel positions : Front: L R
Sampling rate : 48.0 KHz
Stream size : 130 MiB (15%)

Screens: 
http://img845.imageshack.us/img845/3425/50015362.png 
http://img715.imageshack.us/img715/4140/55231721.png 
http://img22.imageshack.us/img22/3011/10321376.png 
http://img850.imageshack.us/img850/5373/41858837.png 
http://img22.imageshack.us/img22/9966/46898769.png 
http://img69.imageshack.us/img69/7489/77054502.png 
http://img198.imageshack.us/img198/2172/75270655.png 
http://img268.imageshack.us/img268/8499/75997740.png 
http://img820.imageshack.us/img820/9127/48609006.png 
http://img19.imageshack.us/img19/8708/76614433.png 
http://img593.imageshack.us/img593/2853/92705519.png 
http://img822.imageshack.us/img822/8073/37665927.png 
http://img825.imageshack.us/img825/1871/61694333.png 
http://img39.imageshack.us/img39/1088/64138352.png